<svg xmlns="http://www.w3.org/2000/svg" width="1188" height="1320">
<path fill="#FFF" d="M 571.34,355.72 235,385 80,510 20,685 50,940 280,1150 690,1230 1015,1125 1165,900 1130,625 940,450 846.41,405.66 780.45,329.49 777,275z"/>
<path fill="#D21857" d="M 730,55 714,90 704.41,220.78 C 662.92,268.86 621.4,315.89 571.34,355.72 L 235,385 80,510 20,685 50,940 280,1150 690,1230 C 690,1230 918.24,1178.1 1005,1100 1035,1073 1069,1032 1102,964 1125,919 1134.5,889.89 1144,852 1147,840 1149.6,831.66 1150,815 1150,725 1130,650 1065,570 L 920,439.34 C 909.14,428.86 903,424 895,420 889,417 884.99,415 846.41,405.66 819.46,397.71 778,362 778,362 774.43,359.07 767.25,347.02 765,340 763.32,334.79 761.66,329.29 761.59,322.66 761.5,313.97 762,313 765,308 771,298 823.53,233.91 836,221 864,192 895.18,166.67 925,140 L 881,104 855,125 840,120 790,95 765,105 769,55 zM 530,428 495,461 C 495,461 493.3,460.62 490,459 480.45,454.37 477,455 450,465 L 425.69,474 413,443 C 432,437 461,431 496.53,428.94 508,428 530,428 530,428 zM 201,483 C 220,470 235,465 235,465 235,465 221,474 216,477 209.09,481.15 197.81,488.56 191,494 186,498 172,509 172,509 172,506 190.93,489.89 201,483 zM 867,470 C 867,470 881.13,474.64 894,487 899.63,492.41 902,494 905,498 L 895,507 C 890,502 882,492 877,485 875.63,483.09 867,470 867,470 zM 311,488 C 310,492 303,497 303,497 L 300,494 C 300,494 306,488 311,488 zM 385,520 325,615 C 325,612.83 336.23,584.28 341.16,575 350.66,557.1 368.7,531.83 374,529 374.71,528.62 385,520 385,520 zM 841,532 C 841,532 845.76,536.61 850,543 L 847,546 C 847,546 840.02,541.02 835,536 zM 703.44,560.38 C 703.44,560.38 705,562 705,566 705,572 701.45,622.27 696.59,659.5 692.33,692.13 684.62,737.37 681.38,748.75 L 595,985 C 593.52,985.28 591,977.29 591,972 591,966.22 593.8,954.68 606.47,908.5 607.83,903.55 614.33,879.48 620.91,855 634.66,803.92 642.94,775.24 645.59,769.5 L 695,585 C 696.88,578.67 699.53,570.27 700.09,567.5 701,563 703.44,560.38 703.44,560.38 zM 776.84,562 C 776.84,562 781.04,570.25 782.59,584 783.93,595.83 784.13,603.92 783.59,628 782.97,655.67 779.87,676.11 778,679 778,679 776.31,674.45 776.72,663.5 777.3,647.74 776.15,586.88 776.03,577.31 775.97,572.98 776.84,562 776.84,562 zM 847.81,587.81 C 847.81,587.81 851.09,589.51 854,600 864.26,637.03 867.59,678.51 861.5,725.97 860.49,733.78 856,753 856,753 856,753 854.32,738.9 853.88,730.59 851.91,695.18 850.94,681.19 848.94,659 846.37,630.56 847.81,587.81 847.81,587.81 zM 1002,591 C 1002.9,590.88 1007.6,591.94 1010,594 1014,597.3 1014,606 1014,606 1014.1,605.98 1002,591 1002,591 zM 1048,603 C 1052,605 1053,605 1051,610 1050,611 1044,611 1041,610 1042,607 1046.6,603 1048,603 zM 165,695 C 165,695 164.54,717.6 164.59,730.34 164.63,743.09 165.22,760.25 165.88,768.5 169.7,816.58 177.74,866.38 190,908 192.45,916.33 195,930 195,930 195,930 189.86,923.69 186,917 181.62,909.43 165.55,881.41 162.84,876 L 130,830 zM 1072,714 C 1072,714 1074.8,718.67 1076,725 1076.6,728.02 1077.7,731.65 1078.6,735.5 1081,746.56 1081.7,792.84 1079.6,809 1078.4,817.61 1073.2,856.76 1064.8,864 1064.8,864 1063.8,856.11 1065,842.5 1068.4,803.4 1069.2,787.79 1069.8,754.94 1070.3,727.67 1072,714 1072,714 zM 245.03,763.03 C 245.03,763.03 247,775 247,804 247,840 250,878 253,900 254.03,908 254,919 254,919 254,919 248.38,902.4 246.16,892.5 241.37,871.17 239.72,854.66 239.59,826.5 239.49,807 242,788 243,775 243.62,766.96 245.03,763.03 245.03,763.03 zM 331,765 C 331,765 333,772 333,790 333,803 333,825 334,835 335,850 335,859 334,882 333,905 333,916 334,936 336,981 337.96,1003.9 346,1046 347.14,1052 352,1073 352,1080 L 332,1078 C 332,1078 336.44,1072.7 338,1068 340,1062 339.82,1058.4 339,1049 337.72,1034.1 334.99,1013.7 329,984 319,935 317,925 317,887 317,848 319.16,820.56 324.59,788.06 325.75,779.94 331,765 331,765 zM 800,820 C 800,820 799.63,838.36 800.03,839 802.28,842.55 797.06,872.81 791.06,891 786.41,905.11 777.84,923.06 772.25,930.41 768.2,935.74 760,945 760,945 zM 472.47,839 C 472.47,839 473.99,845.14 473.97,891.25 473.96,932.18 473,943 472,952 469.66,973.06 470.75,993.79 467,1015 465.28,1024.1 460,1045 460,1045 435,1045 457,900 457,900 459,886 466,855 469,845 469.91,841.97 472.47,839 472.47,839 zM 940.12,843.12 C 941.12,843.17 941.2,846.45 940.72,860.62 939.56,894.9 932.79,926.21 919.78,957.5 902.97,997.91 881.41,1031.9 853.03,1062.8 834.1,1083.4 802.29,1110.5 790.5,1116 776.43,1122.6 776.34,1120.2 790.25,1108.7 817.41,1086.4 841.88,1055.3 859.44,1021 863.79,1012.5 870.33,1000.5 873.97,994.5 897.57,955.31 916.48,913.97 928.84,874.5 931.6,865.7 934.91,855.15 936.19,851.06 937.46,846.97 939.13,843.41 939.91,843.16 939.98,843.13 940.06,843.12 940.12,843.12 zM 540.36,890.23 537.73,959.29 527.76,989.76 527.2,952.17 zM 258,953 C 265,985 280,1050 282,1057 282,1057 276.47,1055.3 268,1049 251.59,1036.7 230,1015 218,995 215,990 213,980 211,968 L 242,981 zM 185.5,1011.2 C 186.39,1011.1 187.1,1011.6 188.28,1012.8 190.01,1014.6 190.24,1015.4 189.38,1016.8 188.78,1017.7 187.21,1018.6 185.88,1018.8 180.98,1019.4 179.11,1013.8 183.53,1011.8 184.35,1011.4 184.96,1011.2 185.5,1011.2 zM 382,1079 C 392,1079 395,1079 396.06,1080.6 397,1082 397,1083 396.34,1083.8 395.74,1084.8 392.94,1084.9 391,1085 386,1084 364,1082 364,1082 364,1082 368,1079 382,1079z"/>
<g fill="none" stroke="#000" stroke-width="28px">
 <path stroke-linejoin="bevel" d="M 626,1261 626,1299 665,1231 M 422.33,1206.5 C 421.05,1245.7 428.21,1259.5 417.34,1273.4 423.96,1273.4 435.84,1276.8 443.45,1277.7"/>
 <path d="M 592.08,1299 C 579.46,1287 575.17,1272.6 577.12,1259.3 577.96,1253.6 582.73,1232.7 583,1225 M 536.95,1298.9 C 534.47,1293.2 532.19,1277.5 532.9,1273.9 534.61,1265.4 549.71,1238.9 553.95,1231.4 M 376.2,1286 C 390.85,1275.2 400.44,1254.7 393,1233.4 388.33,1220.3 374.09,1197.4 367.3,1184.7 M 397,1258 C 442,1262 428.88,1239 453.94,1229.2 464.63,1225 498.31,1232.6 502.66,1226.9 M 468.55,1211.6 C 464.57,1211.7 485.97,1290.6 485.97,1290.6 M 732.4,126.68 C 729.52,102.61 727.59,82.414 722.9,66.169 719.16,53.205 709.5,28.201 703.12,16.807 M 766.69,130.89 C 779.08,98.538 792,88 792,29 M 800.65,156.65 C 831.72,127.81 880.97,82.191 915.03,54.692 M 715.92,131.54 C 701.76,186.59 684.79,264.76 650.34,306.39 627.06,334.51 610.01,339.36 580.13,347.66 495.03,371.31 409.33,364.84 322.42,376.04 263.08,383.68 203.72,398.92 154.98,435.08 104.94,472.21 73.794,526.26 54.322,584.79 24.225,675.25 15.474,773.55 37.204,866.64 50.12,921.97 76.152,973.47 114.55,1015.6 183.18,1090.8 273.02,1141.4 368.88,1174.2 480.66,1212.4 600.57,1225.4 718.27,1216 821.57,1207.7 922.16,1178.3 1006.4,1116.4 1070.1,1069.7 1120,1003.8 1144.2,928.34 1176.4,828.14 1165.9,716.32 1115.8,623.83 1083.6,564.56 1037.7,513.8 977.88,481.76 931.54,456.93 882.91,435.01 840.08,404.26 815.41,386.55 791.83,362.15 783.63,332.05 775.6,302.59 785.46,269.34 800.44,244.14 822.54,206.98 855.01,176.5 890.52,152.27 908.89,139.75 938.84,121.63 957.51,109.98 M 460,1200 C 547.06,1157.8 586.13,1040.4 608.15,976.7 625.68,926.02 642.59,874.9 653.03,822.22 665.54,759.07 670.8,694.84 676.24,630.77 684.76,530.34 692.46,415.79 719.47,317.45 M 490,1180 C 481.84,1166.7 466.96,1129.3 462.94,1116.9 434.92,1030.7 436.11,938.55 450.05,849.82 466.81,743.09 502.19,641.85 547.65,544.24 576.88,481.47 616.92,408.75 660.51,347.43 M 766.32,390.33 C 774.41,470.12 798.99,503.61 804.21,572.27 812.07,675.71 804.9,770.18 777.14,863.45 751.23,950.51 706.45,1029.4 647.38,1098.6 625.91,1123.8 594.93,1156 567.12,1180.4 M 494.6,415.72 C 494.6,415.72 468.63,440.44 461.12,448.12 362.06,549.5 291.43,682.09 275.12,823.97 263.45,925.44 282.4,1040.3 332.94,1133.5 M 366.76,424.24 C 296.56,437.91 241.87,488.94 208.73,542.66 158.1,624.73 138.1,722.89 142.36,818.69 145.3,884.79 164.9,959.78 205.7,1014.5 M 681.78,1180.3 C 766.93,1124 831.45,1046.8 876.65,964.33 920.7,883.93 947.23,786.72 936.83,689.85 929.92,625.52 903.75,562.18 860.19,504.94 M 970.4,530.45 C 999.16,603.94 1024.1,718.15 1018.7,824.08 1014.1,915.32 990.15,1007.8 934.14,1081 916.05,1104.7 890.21,1132.9 860.3,1154.9"/>
</g>
</svg>